<svg width="24" height="23" viewBox="0 0 24 23" fill="none" xmlns="http://www.w3.org/2000/svg">
<g id="Link &#226;&#134;&#146; SVG" clip-path="url(#clip0_496_1240)">
<path id="Vector" fill-rule="evenodd" clip-rule="evenodd" d="M12.132 11.742C10.6581 11.7353 9.24693 11.1449 8.20741 10.1001C7.16527 9.05279 6.57772 7.63707 6.57207 6.15963C6.57548 4.67439 7.15978 3.24942 8.20007 2.18936C9.23803 1.13165 10.6505 0.52482 12.1322 0.500008C12.8692 0.498785 13.5989 0.645208 14.2789 0.93023C14.9595 1.2154 15.5763 1.6334 16.0934 2.15979C16.6112 2.68713 17.019 3.31215 17.2932 3.9985C17.5676 4.68543 17.7031 5.41998 17.6919 6.15963C17.7013 6.89519 17.5639 7.62525 17.2878 8.30707C17.012 8.98806 16.6028 9.60706 16.0844 10.1277C15.5666 10.6476 14.9499 11.0585 14.2706 11.336C13.5922 11.6131 12.865 11.7511 12.1322 11.7418L12.132 11.742ZM12.132 3.83374C11.8209 3.83389 11.5131 3.8967 11.2269 4.01841C10.9407 4.14012 10.6819 4.31824 10.4661 4.54214C10.2496 4.76665 10.0804 5.03239 9.96862 5.32356C9.85684 5.61473 9.80472 5.92541 9.81536 6.23712C9.81085 6.54001 9.86823 6.84064 9.98399 7.12058C10.0997 7.40052 10.2714 7.65387 10.4886 7.86512C10.7052 8.07583 10.9629 8.23966 11.2457 8.34639C11.5284 8.45313 11.8301 8.50049 12.132 8.48552C12.4319 8.49281 12.7302 8.44018 13.0095 8.33071C13.2888 8.22124 13.5434 8.05714 13.7585 7.84801C13.9741 7.63828 14.146 7.38796 14.2644 7.11149C14.3828 6.83502 14.4453 6.53786 14.4483 6.23712C14.4586 5.92549 14.4064 5.61495 14.2947 5.32383C14.183 5.03272 14.0142 4.76692 13.7981 4.54214C13.5821 4.31805 13.3231 4.13981 13.0367 4.01805C12.7506 3.89631 12.4429 3.83362 12.132 3.83374ZM14.3711 16.3938L17.5371 19.4948C17.8347 19.7933 18.0016 20.1977 18.0011 20.6193C18.0009 21.0405 17.8341 21.4445 17.5371 21.7432C17.4003 21.9074 17.2292 22.0396 17.0357 22.1304C16.8423 22.2212 16.6313 22.2684 16.4176 22.2688C16.2038 22.2688 15.9926 22.2217 15.7991 22.1309C15.6056 22.0401 15.4345 21.9077 15.298 21.7432L12.1317 18.6422L9.04316 21.7432C8.89312 21.8971 8.71261 22.0179 8.51318 22.098C8.31374 22.1781 8.09978 22.2157 7.88498 22.2084C7.4566 22.1923 7.04711 22.0279 6.72656 21.7432C6.42903 21.4448 6.26216 21.0404 6.26261 20.619C6.26272 20.1977 6.42951 19.7936 6.72656 19.4948L9.96985 16.3938C8.81075 16.0301 7.69676 15.5359 6.64932 14.9205C6.2911 14.6844 6.0361 14.3208 5.93603 13.9036C5.83579 13.4861 5.89764 13.0461 6.1091 12.6724C6.2858 12.3898 6.54511 12.1683 6.85188 12.038C7.15865 11.9077 7.49805 11.8749 7.82412 11.9439C8.0404 11.9899 8.24502 12.0796 8.42545 12.2074C9.55491 12.8917 10.8502 13.2536 12.1708 13.2537C13.4908 13.2537 14.7857 12.8919 15.9157 12.2074C16.0962 12.0798 16.3009 11.9903 16.5172 11.9444C16.7335 11.8986 16.9568 11.8973 17.1736 11.9407C17.3906 11.9842 17.5965 12.0715 17.7786 12.1973C17.9607 12.3231 18.1151 12.4848 18.2326 12.6724C18.4515 13.0372 18.5253 13.471 18.4394 13.8877C18.3537 14.3041 18.1144 14.6729 17.7691 14.9208C16.6947 15.5364 15.5551 16.0306 14.3713 16.394L14.3711 16.3938Z" fill="white"/>
</g>
<defs>
<clipPath id="clip0_496_1240">
<rect width="24" height="22" fill="white" transform="translate(0 0.5)"/>
</clipPath>
</defs>
</svg>
