<svg width="24" height="23" viewBox="0 0 24 23" fill="none" xmlns="http://www.w3.org/2000/svg">
<g id="Link &#226;&#134;&#146; SVG" clip-path="url(#clip0_496_1238)">
<path id="Vector" d="M22.2607 1.29613C21.9718 1.31701 21.6881 1.38469 21.4208 1.49653H21.4184C21.1617 1.59853 19.9426 2.11093 18.0889 2.88853L11.4454 5.68693C6.67845 7.69573 1.99309 9.67093 1.99309 9.67093L2.04948 9.64933C2.04948 9.64933 1.72552 9.75493 1.38957 9.98533C1.1796 10.1185 1.00082 10.2925 0.861642 10.4965C0.662672 10.7896 0.57423 11.1439 0.612076 11.4961C0.692465 12.1453 1.11361 12.5353 1.41597 12.7501C1.72192 12.9685 2.01349 13.0693 2.01349 13.0693H2.02068L6.41569 14.5501C6.61246 15.1825 7.7547 18.9373 8.02827 19.8025C8.19025 20.3185 8.34862 20.6425 8.5454 20.8885C8.64138 21.0145 8.75177 21.1201 8.88615 21.2053C8.95574 21.2461 9.03013 21.2773 9.10812 21.3013L9.06253 21.2893C9.07572 21.2929 9.08652 21.3037 9.09732 21.3073C9.13332 21.3169 9.15731 21.3205 9.20291 21.3277C9.89881 21.5389 10.4579 21.1069 10.4579 21.1069L10.4891 21.0817L13.0832 18.7189L17.4314 22.0549L17.531 22.0981C18.4369 22.4953 19.3547 22.2745 19.8395 21.8833C20.329 21.4897 20.5186 20.9869 20.5186 20.9869L20.5498 20.9065L23.9093 3.69013C24.0053 3.26533 24.0293 2.86693 23.9249 2.48173C23.8157 2.09053 23.565 1.75453 23.2218 1.53853C22.9333 1.3634 22.5977 1.27895 22.2607 1.29613ZM22.1707 3.14053C22.1671 3.19813 22.1779 3.19093 22.1527 3.30013V3.30973L18.8244 20.3473C18.8088 20.3713 18.7848 20.4241 18.7188 20.4781C18.648 20.5333 18.5928 20.5681 18.3001 20.4529L12.9824 16.3741L9.76923 19.3021L10.4435 14.9917L19.1328 6.89173C19.4915 6.55933 19.3727 6.48853 19.3727 6.48853C19.3967 6.08053 18.8316 6.36853 18.8316 6.36853L7.87229 13.1593L7.86869 13.1413L2.617 11.3725V11.3677L2.605 11.3653C2.61403 11.3619 2.62285 11.3579 2.6314 11.3533L2.6602 11.3401L2.68779 11.3305L12.1437 7.34653C14.5302 6.34093 16.9347 5.32933 18.7836 4.54813C19.8803 4.08613 20.9793 3.62653 22.0772 3.17053C22.1515 3.14173 22.1168 3.14173 22.1695 3.14173L22.1707 3.14053Z" fill="white"/>
</g>
<defs>
<clipPath id="clip0_496_1238">
<rect width="24" height="22.8" fill="white" transform="translate(-0.000488281 0.0996094)"/>
</clipPath>
</defs>
</svg>
