<svg width="24" height="17" viewBox="0 0 24 17" fill="none" xmlns="http://www.w3.org/2000/svg">
<g id="Link &#226;&#134;&#146; SVG" clip-path="url(#clip0_523_1234)">
<path id="Vector" d="M2.8423 1.18359C1.67342 1.18359 0.783992 2.33084 1.10619 3.46036C1.94452 6.40297 3.18847 9.28514 5.04553 11.5515C6.90155 13.8168 9.41343 15.459 12.625 15.7851C13.6937 15.8935 14.6155 15.0234 14.6155 13.9668V11.8589C14.6155 11.7265 14.7052 11.6338 14.8074 11.6296H14.8511C15.2203 11.6296 15.9773 12.0912 16.6446 12.8092C17.2271 13.4542 17.7421 14.157 18.1816 14.9067C18.5017 15.4632 19.0991 15.7997 19.7341 15.7997H22.2742C23.54 15.7997 24.3867 14.3722 23.7673 13.2656C22.7955 11.5286 20.8561 9.80927 19.8853 8.9517C21.6631 7.00212 22.8414 4.87748 23.3628 3.46766C23.7569 2.40273 22.9457 1.20443 21.7987 1.20443H19.9865C19.1982 1.20443 18.4641 1.58789 18.1628 2.20267C16.7499 5.09318 15.4924 6.15497 14.6061 6.91876V2.99772C14.6061 2.01824 13.7928 1.21277 12.8179 1.21069L9.64283 1.20548C8.6314 1.20443 8.00474 2.45275 8.61055 3.26238L9.22366 4.08244V4.08452C9.33002 4.22311 9.38528 4.38983 9.38528 4.56072L9.39779 7.8326C8.13299 6.49988 6.76079 3.67918 6.34683 2.42149V2.42045C6.22714 2.06255 5.9982 1.75115 5.69221 1.53004C5.38622 1.30892 5.01857 1.18922 4.64096 1.18776L2.8423 1.18359ZM2.8423 2.74659L4.63679 2.75076C4.74732 2.75076 4.82865 2.8112 4.86098 2.91019C5.37503 4.47319 6.72742 7.45018 8.43954 9.11738C8.88374 9.54981 9.53751 9.63838 10.0432 9.43311C10.5489 9.22679 10.9608 8.69537 10.9608 8.07017L10.9483 4.56072C10.9483 4.05014 10.7815 3.55206 10.4739 3.14464V3.1436L10.1923 2.77056L12.8147 2.77473C12.9524 2.77473 13.0421 2.86434 13.0421 2.99876V6.95732C13.0421 8.22647 14.6405 8.95483 15.6019 8.12644H15.6029C16.484 7.36578 18.0429 6.00805 19.5673 2.88726C19.6028 2.81432 19.5715 2.76639 19.9854 2.76639H21.7997C21.904 2.76639 21.9353 2.81641 21.8957 2.92373C21.4525 4.12203 20.3212 6.20916 18.6424 8.01599C18.1252 8.57346 18.1461 9.49354 18.7311 10.0104C19.6486 10.8211 21.6486 12.68 22.4014 14.0273C22.4712 14.1502 22.4191 14.2357 22.2763 14.2357H19.7341C19.6943 14.2369 19.6549 14.2273 19.6201 14.2081C19.5852 14.1888 19.5562 14.1606 19.536 14.1263C19.0411 13.2728 18.4563 12.4746 17.7916 11.7453C17.0054 10.8982 16.0711 10.0656 14.8511 10.0656H14.7646C13.7938 10.0937 13.0514 10.9169 13.0514 11.8578V13.9658C13.0514 14.1284 12.9263 14.244 12.7824 14.2294C10.0067 13.9481 7.91506 12.5852 6.25507 10.5606C4.59613 8.53594 3.41057 5.84029 2.60977 3.0321C2.56493 2.8758 2.66191 2.74659 2.8423 2.74659Z" fill="white"/>
</g>
<defs>
<clipPath id="clip0_523_1234">
<rect width="24" height="15.63" fill="white" transform="translate(-0.000488281 0.68457)"/>
</clipPath>
</defs>
</svg>
