<svg width="24" height="19" viewBox="0 0 24 19" fill="none" xmlns="http://www.w3.org/2000/svg">
<g id="Link &#226;&#134;&#146; SVG" clip-path="url(#clip0_496_1236)">
<path id="Vector" d="M23.4531 9.42872C23.4531 9.37204 23.4531 9.30882 23.4509 9.2347L23.4378 8.548C23.4194 7.84951 23.382 7.15165 23.3255 6.4552C23.2491 5.53306 23.1357 4.76352 22.983 4.18691C22.8212 3.58424 22.504 3.03457 22.0629 2.59289C21.6219 2.15121 21.0725 1.833 20.4697 1.6701C19.7465 1.47608 18.3295 1.35618 16.3355 1.28206C15.3865 1.24609 14.372 1.2232 13.3576 1.21012C13.002 1.20467 12.6714 1.20249 12.3758 1.19922H11.6232C11.3276 1.20249 10.997 1.20467 10.6414 1.21012C9.62696 1.2232 8.6125 1.24609 7.66349 1.28206C5.66947 1.35836 4.25032 1.47826 3.52929 1.6701C2.92637 1.8327 2.37682 2.15081 1.93571 2.59253C1.49461 3.03426 1.17746 3.58409 1.01604 4.18691C0.860054 4.76461 0.749882 5.53306 0.673524 6.45411C0.617057 7.15056 0.579592 7.84842 0.56117 8.54691C0.553534 8.79543 0.550262 9.0276 0.54808 9.23361L0.545898 9.42981V9.5726C0.545898 9.62928 0.545898 9.6925 0.54808 9.76662L0.56117 10.4533C0.581895 11.1673 0.617892 11.8769 0.673524 12.5461C0.749882 13.4693 0.863327 14.2378 1.01604 14.8155C1.17762 15.4181 1.49485 15.9677 1.93594 16.4092C2.37704 16.8508 2.9265 17.1687 3.52929 17.3312C4.25032 17.5252 5.66947 17.6462 7.66349 17.7204C8.6125 17.7552 9.62696 17.7781 10.6414 17.7912C10.997 17.7967 11.3276 17.7988 11.6232 17.8021H12.3758C12.6714 17.7988 13.002 17.7967 13.3576 17.7912C14.372 17.7781 15.3865 17.7552 16.3355 17.7193C18.3295 17.643 19.7487 17.5231 20.4697 17.3312C21.0727 17.1691 21.6224 16.8513 22.0635 16.4097C22.5047 15.9681 22.8218 15.4183 22.983 14.8155C23.1389 14.2378 23.2491 13.4683 23.3255 12.5461C23.3811 11.8769 23.4171 11.1673 23.4378 10.4533C23.4455 10.2059 23.4487 9.97372 23.4509 9.76662L23.4531 9.5726V9.42872ZM21.6118 9.5617C21.6118 9.6162 21.6118 9.67397 21.6096 9.74264C21.6074 9.94211 21.602 10.1623 21.5965 10.3999C21.5791 11.079 21.5431 11.7591 21.4896 12.3892C21.4209 13.2121 21.3238 13.8868 21.2038 14.3392C21.0446 14.9289 20.5799 15.3965 19.9919 15.5523C19.4542 15.6951 18.1015 15.8107 16.2635 15.8793C14.9645 15.9277 13.6648 15.9542 12.3649 15.9589H11.6341L10.6676 15.9513C9.68997 15.9396 8.71252 15.9156 7.73549 15.8793C5.89636 15.8074 4.54157 15.6951 4.00707 15.5523C3.7169 15.4732 3.45249 15.3196 3.24009 15.1068C3.02768 14.894 2.87468 14.6293 2.79626 14.3392C2.67627 13.8868 2.57809 13.2121 2.50937 12.3892C2.45483 11.758 2.42211 11.079 2.40247 10.3999C2.39484 10.1623 2.39156 9.93993 2.38938 9.74264L2.3872 9.5617V9.43853C2.3872 9.38512 2.3872 9.32626 2.38938 9.25759C2.39156 9.05812 2.39702 8.83903 2.40247 8.60141C2.41992 7.92125 2.45592 7.24218 2.50937 6.61107C2.57809 5.78812 2.67518 5.11341 2.79626 4.66215C2.95443 4.07137 3.41912 3.60485 4.00707 3.44789C4.54484 3.3051 5.89636 3.19065 7.73549 3.12089C9.03448 3.07292 10.3342 3.04676 11.6341 3.04241H12.3649L13.3314 3.05004C14.3306 3.06203 15.3309 3.08492 16.2635 3.12089C18.1015 3.19283 19.4574 3.3051 19.9919 3.44789C20.5799 3.60703 21.0446 4.07137 21.2027 4.66215C21.3227 5.11341 21.4209 5.78812 21.4896 6.61107C21.5442 7.24218 21.5769 7.92125 21.5965 8.60141C21.6052 8.83903 21.6074 9.0603 21.6096 9.25759C21.6096 9.32626 21.6129 9.38839 21.6129 9.43853L21.6118 9.5617ZM9.72514 12.9233L15.657 9.4745L9.72405 6.07806V12.9244L9.72514 12.9233Z" fill="white"/>
</g>
<defs>
<clipPath id="clip0_496_1236">
<rect width="24" height="17.44" fill="white" transform="translate(-0.000488281 0.780273)"/>
</clipPath>
</defs>
</svg>
