<svg width="16" height="16" viewBox="0 0 16 16" fill="none" xmlns="http://www.w3.org/2000/svg">
<path d="M12.6667 2.66667H12V1.33334H10.6667V2.66667H5.33333V1.33334H4V2.66667H3.33333C2.59333 2.66667 2.00667 3.26667 2.00667 4L2 13.3333C2 14.0667 2.59333 14.6667 3.33333 14.6667H12.6667C13.4 14.6667 14 14.0667 14 13.3333V4C14 3.26667 13.4 2.66667 12.6667 2.66667ZM12.6667 13.3333H3.33333V6.66667H12.6667V13.3333ZM12.6667 5.33334H3.33333V4H12.6667V5.33334ZM6 9.33334H4.66667V8H6V9.33334ZM8.66667 9.33334H7.33333V8H8.66667V9.33334ZM11.3333 9.33334H10V8H11.3333V9.33334ZM6 12H4.66667V10.6667H6V12ZM8.66667 12H7.33333V10.6667H8.66667V12ZM11.3333 12H10V10.6667H11.3333V12Z" fill="black"/>
</svg>
