<svg width="24" height="25" viewBox="0 0 24 25" fill="none" xmlns="http://www.w3.org/2000/svg">
<g id="pin_drop">
<g id="Vector">
<path d="M12 4.125C13.93 4.125 17 5.525 17 9.275C17 11.435 15.28 13.945 12 16.595C8.72 13.945 7 11.425 7 9.275C7 5.525 10.07 4.125 12 4.125ZM12 2.125C8.73 2.125 5 4.585 5 9.275C5 12.395 7.33 15.685 12 19.125C16.67 15.685 19 12.395 19 9.275C19 4.585 15.27 2.125 12 2.125Z" fill="black"/>
<path d="M12 7.125C10.9 7.125 10 8.025 10 9.125C10 10.225 10.9 11.125 12 11.125C12.5304 11.125 13.0391 10.9143 13.4142 10.5392C13.7893 10.1641 14 9.65543 14 9.125C14 8.59457 13.7893 8.08586 13.4142 7.71079C13.0391 7.33571 12.5304 7.125 12 7.125ZM5 20.125H19V22.125H5V20.125Z" fill="black"/>
</g>
</g>
</svg>
