<svg width="240" height="67" viewBox="0 0 240 67" fill="none" xmlns="http://www.w3.org/2000/svg">
<g clip-path="url(#clip0_496_897)">
<mask id="mask0_496_897" style="mask-type:luminance" maskUnits="userSpaceOnUse" x="0" y="0" width="240" height="67">
<path d="M0.000976562 0.68457H239.493V66.3146H0.000976562V0.68457Z" fill="white"/>
</mask>
<g mask="url(#mask0_496_897)">
<path d="M62.6724 29.5446H80.3338V65.876H93.2691V29.5446H111.262V17.923H62.6724V29.5446ZM58.4929 17.8235H45.4417V65.8739H58.4929V17.8235ZM0.000976562 17.8235V65.8739H13.0522V17.8235H0.000976562ZM32.731 17.8235L13.0522 65.8739H26.5064L45.4325 17.8225L32.731 17.8235ZM172.884 17.8235H163.636L150.683 49.4541L137.731 17.8235H115.432V65.8739H128.483V26.5944L143.956 65.8749H157.411L172.884 26.5944V65.8739H185.934V17.8235H172.884ZM51.9627 0.684877C50.7011 0.709525 49.4749 1.10619 48.438 1.8251C47.4011 2.54401 46.5997 3.55312 46.1343 4.7258C45.6689 5.89848 45.5603 7.18246 45.8222 8.41662C46.084 9.65077 46.7046 10.7801 47.6061 11.6629C48.5075 12.5457 49.6497 13.1425 50.8892 13.3786C52.1288 13.6147 53.4104 13.4795 54.5734 12.9899C55.7363 12.5003 56.7287 11.6782 57.426 10.6268C58.1233 9.57529 58.4945 8.34131 58.4929 7.0797C58.474 5.36623 57.7756 3.73034 56.5512 2.53132C55.3268 1.3323 53.6765 0.668196 51.9627 0.684877ZM226.837 42.2799C226.666 49.6695 221.715 54.6297 214.531 54.6297H214.261C210.396 54.5579 207.211 53.3109 205.05 51.0415C202.888 48.7732 201.775 45.4189 201.847 41.437C201.764 39.7774 202.033 38.119 202.638 36.5712C203.243 35.0235 204.169 33.6216 205.356 32.458C206.542 31.2946 207.963 30.3966 209.523 29.8233C211.083 29.25 212.747 29.0145 214.405 29.1324C216.058 29.0743 217.705 29.3527 219.247 29.9509C220.789 30.549 222.194 31.4543 223.375 32.6118C224.57 33.9143 225.492 35.4436 226.085 37.1089C226.678 38.7743 226.931 40.5418 226.828 42.3066L226.837 42.2799ZM227.851 20.944C223.856 18.6359 219.315 17.4404 214.701 17.4821C213.502 17.4851 212.304 17.5538 211.113 17.6892C204.107 18.4604 198.475 21.384 194.367 26.379C190.509 31.0695 188.841 36.7916 189.272 43.8489C189.433 48.737 191.18 53.44 194.25 57.2477C199.183 63.2744 205.91 66.1539 215.518 66.3056H215.732L216.979 66.1446C218.654 65.9577 220.314 65.658 221.948 65.2474C226.849 64.0232 231.226 61.2565 234.434 57.3554C237.555 53.4212 239.317 48.5822 239.457 43.5628C239.878 33.2753 235.977 25.6253 227.859 20.944" fill="white"/>
</g>
</g>
<defs>
<clipPath id="clip0_496_897">
<rect width="240" height="65.63" fill="white" transform="translate(0 0.68457)"/>
</clipPath>
</defs>
</svg>
