<svg width="32" height="32" viewBox="0 0 32 32" fill="none" xmlns="http://www.w3.org/2000/svg">
<path d="M16.0007 16.0001C14.534 16.0001 13.334 14.8001 13.334 13.3334C13.334 11.8667 14.534 10.6667 16.0007 10.6667C17.4673 10.6667 18.6673 11.8667 18.6673 13.3334C18.6673 14.8001 17.4673 16.0001 16.0007 16.0001ZM24.0006 13.6001C24.0006 8.76008 20.4673 5.33341 16.0007 5.33341C11.534 5.33341 8.00065 8.76008 8.00065 13.6001C8.00065 16.7201 10.6007 20.8534 16.0007 25.7867C21.4007 20.8534 24.0006 16.7201 24.0006 13.6001ZM16.0007 2.66675C21.6006 2.66675 26.6673 6.96008 26.6673 13.6001C26.6673 18.0267 23.1073 23.2667 16.0007 29.3334C8.89398 23.2667 5.33398 18.0267 5.33398 13.6001C5.33398 6.96008 10.4007 2.66675 16.0007 2.66675Z" fill="white"/>
</svg>
