<svg width="40" height="40" viewBox="0 0 40 40" fill="none" xmlns="http://www.w3.org/2000/svg">
<path d="M19.9998 10.0003C21.8332 10.0003 23.3332 11.5003 23.3332 13.3337C23.3332 15.167 21.8332 16.667 19.9998 16.667C18.1665 16.667 16.6665 15.167 16.6665 13.3337C16.6665 11.5003 18.1665 10.0003 19.9998 10.0003ZM19.9998 25.0003C24.4998 25.0003 29.6665 27.1503 29.9998 28.3337V30.0003H9.99984V28.3503C10.3332 27.1503 15.4998 25.0003 19.9998 25.0003ZM19.9998 6.66699C16.3165 6.66699 13.3332 9.65033 13.3332 13.3337C13.3332 17.017 16.3165 20.0003 19.9998 20.0003C23.6832 20.0003 26.6665 17.017 26.6665 13.3337C26.6665 9.65033 23.6832 6.66699 19.9998 6.66699ZM19.9998 21.667C15.5498 21.667 6.6665 23.9003 6.6665 28.3337V33.3337H33.3332V28.3337C33.3332 23.9003 24.4498 21.667 19.9998 21.667Z" fill="#1B1F3B" fill-opacity="0.24"/>
</svg>
