<svg width="16" height="17" viewBox="0 0 16 17" fill="none" xmlns="http://www.w3.org/2000/svg">
<g id="phone_in_talk">
<path id="Vector" d="M10 8.125H11.3333C11.3333 6.285 9.84 4.79167 8 4.79167V6.125C9.10667 6.125 10 7.01833 10 8.125ZM12.6667 8.125H14C14 4.81167 11.3133 2.125 8 2.125V3.45833C10.58 3.45833 12.6667 5.545 12.6667 8.125ZM13.3333 10.4583C12.5 10.4583 11.7 10.325 10.9533 10.0783C10.8867 10.0583 10.8133 10.045 10.7467 10.045C10.5733 10.045 10.4067 10.1117 10.2733 10.2383L8.80667 11.705C6.92 10.745 5.37333 9.205 4.41333 7.31167L5.88 5.83833C6.06667 5.665 6.12 5.405 6.04667 5.17167C5.8 4.425 5.66667 3.625 5.66667 2.79167C5.66667 2.425 5.36667 2.125 5 2.125H2.66667C2.3 2.125 2 2.425 2 2.79167C2 9.05167 7.07333 14.125 13.3333 14.125C13.7 14.125 14 13.825 14 13.4583V11.125C14 10.7583 13.7 10.4583 13.3333 10.4583ZM3.35333 3.45833H4.35333C4.4 4.045 4.5 4.625 4.65333 5.17833L3.85333 5.985C3.58667 5.17833 3.41333 4.33833 3.35333 3.45833ZM12.6667 12.7717C11.7867 12.7117 10.9333 12.5383 10.1333 12.265L10.9333 11.465C11.5 11.625 12.08 11.725 12.6667 11.765V12.7717Z" fill="#1B1F3B" fill-opacity="0.6"/>
</g>
</svg>
