<svg width="24" height="25" viewBox="0 0 24 25" fill="none" xmlns="http://www.w3.org/2000/svg">
<path d="M12 12.5996C10.9 12.5996 10 11.6996 10 10.5996C10 9.49961 10.9 8.59961 12 8.59961C13.1 8.59961 14 9.49961 14 10.5996C14 11.6996 13.1 12.5996 12 12.5996ZM18 10.7996C18 7.16961 15.35 4.59961 12 4.59961C8.65 4.59961 6 7.16961 6 10.7996C6 13.1396 7.95 16.2396 12 19.9396C16.05 16.2396 18 13.1396 18 10.7996ZM12 2.59961C16.2 2.59961 20 5.81961 20 10.7996C20 14.1196 17.33 18.0496 12 22.5996C6.67 18.0496 4 14.1196 4 10.7996C4 5.81961 7.8 2.59961 12 2.59961Z" fill="white"/>
</svg>
