<svg width="24" height="25" viewBox="0 0 24 25" fill="none" xmlns="http://www.w3.org/2000/svg">
<path d="M11.99 2.59961C6.47 2.59961 2 7.07961 2 12.5996C2 18.1196 6.47 22.5996 11.99 22.5996C17.52 22.5996 22 18.1196 22 12.5996C22 7.07961 17.52 2.59961 11.99 2.59961ZM12 20.5996C7.58 20.5996 4 17.0196 4 12.5996C4 8.17961 7.58 4.59961 12 4.59961C16.42 4.59961 20 8.17961 20 12.5996C20 17.0196 16.42 20.5996 12 20.5996ZM12.5 7.59961H11V13.5996L16.25 16.7496L17 15.5196L12.5 12.8496V7.59961Z" fill="white"/>
</svg>
