<svg width="223" height="24" viewBox="0 0 223 24" fill="none" xmlns="http://www.w3.org/2000/svg">
<path d="M0.88 0.664H3.568V23H0.88V0.664ZM7.0775 0.664H25.8295V3.16H17.7975V23H15.1095V3.16H7.0775V0.664ZM29.3488 0.664H35.2048C35.3968 1.51733 36.1541 4.70667 37.4768 10.232C37.9248 12.1307 38.3621 13.9973 38.7888 15.832C39.2368 17.6667 39.6528 19.416 40.0368 21.08H40.9328C41.2528 19.672 42.3621 14.9893 44.2608 7.032C44.5381 5.92267 44.7941 4.83467 45.0288 3.768C45.2848 2.70133 45.5408 1.66667 45.7968 0.664H51.5568V23H48.8688V2.552H48.0368C47.5461 4.664 46.9594 7.10667 46.2768 9.88C45.5941 12.6533 44.9434 15.32 44.3248 17.88C44.1114 18.7333 43.8981 19.5867 43.6848 20.44C43.4928 21.2933 43.2901 22.1467 43.0768 23H37.8288C37.6154 22.1467 37.4021 21.2933 37.1888 20.44C36.9968 19.5867 36.7941 18.7333 36.5808 17.88C35.9621 15.32 35.3434 12.7707 34.7248 10.232C34.1061 7.672 33.4874 5.112 32.8688 2.552H32.0368V23H29.3488V0.664ZM55.8775 11.896C55.8775 7.88533 56.9335 4.96267 59.0455 3.128C61.1788 1.272 64.3255 0.344 68.4855 0.344C72.6668 0.344 75.8135 1.272 77.9255 3.128C80.0375 4.96267 81.0935 7.88533 81.0935 11.896C81.0935 15.9067 80.0375 18.84 77.9255 20.696C75.8135 22.5307 72.6668 23.448 68.4855 23.448C64.3255 23.448 61.1788 22.5307 59.0455 20.696C56.9335 18.84 55.8775 15.9067 55.8775 11.896ZM58.7895 11.896C58.7895 13.9227 59.0882 15.5973 59.6855 16.92C60.2828 18.2213 61.2962 19.224 62.7255 19.928C64.1548 20.6107 66.0748 20.952 68.4855 20.952C70.9602 20.952 72.9015 20.6107 74.3095 19.928C75.7388 19.224 76.7415 18.2213 77.3175 16.92C77.8935 15.5973 78.1815 13.9227 78.1815 11.896C78.1815 9.86933 77.8935 8.20533 77.3175 6.904C76.7415 5.58133 75.7388 4.57867 74.3095 3.896C72.9015 3.192 70.9602 2.84 68.4855 2.84C66.0748 2.84 64.1548 3.192 62.7255 3.896C61.2962 4.57867 60.2828 5.58133 59.6855 6.904C59.0882 8.20533 58.7895 9.86933 58.7895 11.896ZM110.941 3.224H96.381L97.693 1.912V21.752L96.381 20.44H110.941V23H95.005V0.664H110.941V3.224ZM96.925 12.824V10.392H110.685V12.824H96.925ZM112.591 0.664H115.567L120.559 13.848C120.815 14.488 121.06 15.1173 121.295 15.736C121.529 16.3333 121.764 16.92 121.999 17.496C122.319 18.2853 122.607 19.0107 122.863 19.672C123.14 20.3333 123.375 20.9413 123.567 21.496L121.135 21.112H126.703L124.111 21.496C124.303 20.984 124.516 20.4187 124.751 19.8C124.985 19.1813 125.252 18.52 125.551 17.816L127.087 13.848L132.079 0.664H135.055L126.383 23H121.295L112.591 0.664ZM153.753 3.224H139.194L140.506 1.912V21.752L139.194 20.44H153.753V23H137.818V0.664H153.753V3.224ZM139.738 12.824V10.392H153.498V12.824H139.738ZM158.411 0.664H163.979L167.467 8.024C168.043 9.26133 168.619 10.488 169.195 11.704C169.771 12.92 170.347 14.1467 170.923 15.384C171.67 16.984 172.129 17.9547 172.299 18.296L173.643 21.24H174.379L174.571 0.664H177.259V23H171.499C170.923 21.7627 170.337 20.536 169.739 19.32C169.163 18.0827 168.587 16.8453 168.011 15.608C167.435 14.3707 166.859 13.144 166.283 11.928C165.707 10.6907 165.121 9.45333 164.523 8.216C164.289 7.72533 164.054 7.24533 163.819 6.776C163.606 6.28533 163.393 5.79467 163.179 5.304C162.283 3.384 161.835 2.424 161.835 2.424H161.099V23H158.411V0.664ZM180.765 0.664H199.517V3.16H191.485V23H188.797V3.16H180.765V0.664ZM212.22 23.384C209.127 23.384 206.61 22.872 204.668 21.848C202.748 20.824 201.575 19.096 201.148 16.664H204.22C204.498 18.136 205.351 19.2027 206.78 19.864C208.231 20.504 210.023 20.824 212.156 20.824C214.311 20.824 216.039 20.4933 217.34 19.832C218.642 19.1493 219.292 18.04 219.292 16.504C219.292 15.416 219.026 14.6053 218.492 14.072C217.98 13.5173 217.244 13.1547 216.284 12.984C215.324 12.8133 214.023 12.728 212.38 12.728H210.46C208.668 12.728 207.154 12.5893 205.916 12.312C204.7 12.0133 203.73 11.448 203.004 10.616C202.279 9.784 201.916 8.61067 201.916 7.096C201.916 5.60267 202.386 4.36533 203.324 3.384C204.263 2.40267 205.479 1.67733 206.972 1.208C208.487 0.738666 210.098 0.504 211.804 0.504C214.514 0.504 216.796 1.016 218.652 2.04C220.53 3.04267 221.724 4.70667 222.236 7.032H219.388C218.791 5.496 217.874 4.41867 216.636 3.8C215.42 3.16 213.81 2.84 211.804 2.84C209.714 2.84 207.986 3.17067 206.62 3.832C205.276 4.49333 204.604 5.53867 204.604 6.968C204.604 7.928 204.892 8.64267 205.468 9.112C206.044 9.56 206.802 9.848 207.74 9.976C208.7 10.104 209.98 10.168 211.58 10.168H213.212C216.135 10.168 218.354 10.6267 219.868 11.544C221.383 12.4613 222.14 14.1147 222.14 16.504C222.14 18.0613 221.682 19.3627 220.764 20.408C219.847 21.432 218.631 22.1893 217.116 22.68C215.623 23.1493 213.991 23.384 212.22 23.384Z" fill="white"/>
</svg>
