<?xml version="1.0" standalone="no"?>
<!DOCTYPE svg PUBLIC "-//W3C//DTD SVG 20010904//EN"
 "http://www.w3.org/TR/2001/REC-SVG-20010904/DTD/svg10.dtd">
<svg version="1.0" xmlns="http://www.w3.org/2000/svg"
 width="700.000000pt" height="700.000000pt" viewBox="0 0 700.000000 700.000000"
 preserveAspectRatio="xMidYMid meet">
<metadata>
Created by potrace 1.14, written by Peter Selinger 2001-2017
</metadata>
<g transform="translate(0.000000,700.000000) scale(0.100000,-0.100000)"
fill="#000000" stroke="none">
<path d="M4948 6008 c-154 -32 -295 -181 -323 -339 -56 -320 244 -587 552
-491 303 95 400 481 178 707 -109 112 -255 156 -407 123z"/>
<path d="M1544 4861 c-2 -2 -4 -730 -4 -1618 l0 -1613 893 0 892 0 92 233 c51
127 214 543 363 922 149 380 275 699 280 710 5 11 48 119 95 240 47 121 90
228 95 237 6 10 10 22 10 28 0 6 9 29 19 53 11 23 43 103 71 177 29 74 58 149
65 165 7 17 51 127 97 245 l83 214 3 -1612 2 -1612 440 0 440 0 -2 1618 -3
1617 -863 0 c-765 1 -865 -1 -872 -15 -4 -8 -81 -193 -169 -410 -89 -217 -170
-415 -181 -440 -10 -25 -60 -144 -109 -265 -49 -121 -124 -303 -166 -405 -42
-102 -77 -191 -78 -197 0 -7 -4 -13 -9 -13 -4 0 -8 -6 -8 -13 0 -6 -65 -170
-144 -362 -79 -193 -193 -471 -254 -620 -61 -148 -131 -319 -156 -380 l-45
-110 -3 1615 -3 1615 -433 0 c-238 0 -435 -2 -438 -4z"/>
</g>
</svg>
